<?xml version="1.0"?>
<svg xmlns:xlink="http://www.w3.org/1999/xlink" xmlns:svgjs="http://svgjs.com/svgjs" xmlns="http://www.w3.org/2000/svg" version="1.1" width="512" height="512" x="0" y="0" viewBox="0 0 18.909 18.909" style="enable-background:new 0 0 512 512" xml:space="preserve" class=""><g>
<g xmlns="http://www.w3.org/2000/svg">
	<path style="" d="M10.193,8.311L1.887,1.714C1.484,1.511,1.003,1.533,0.619,1.766C0.233,1.998,0,2.412,0,2.856v13.198   c0,0.443,0.233,0.856,0.619,1.089c0.208,0.126,0.444,0.19,0.683,0.19c0.201,0,0.401-0.046,0.586-0.138l8.306-6.599   c0.4-0.376,0.716-0.658,0.716-1.143S10.641,8.707,10.193,8.311z" fill="#ffffff" data-original="#030104" class=""/>
	<path style="" d="M18.193,8.311L9.887,1.714C9.484,1.511,9.002,1.533,8.618,1.766   c-0.386,0.232-0.619,0.646-0.619,1.09v13.198c0,0.443,0.233,0.856,0.619,1.089c0.208,0.126,0.444,0.19,0.683,0.19   c0.201,0,0.401-0.046,0.586-0.138l8.306-6.599c0.4-0.376,0.716-0.658,0.716-1.143S18.641,8.707,18.193,8.311z" fill="#ffffff" data-original="#030104" class=""/>
</g>
<g xmlns="http://www.w3.org/2000/svg">
</g>
<g xmlns="http://www.w3.org/2000/svg">
</g>
<g xmlns="http://www.w3.org/2000/svg">
</g>
<g xmlns="http://www.w3.org/2000/svg">
</g>
<g xmlns="http://www.w3.org/2000/svg">
</g>
<g xmlns="http://www.w3.org/2000/svg">
</g>
<g xmlns="http://www.w3.org/2000/svg">
</g>
<g xmlns="http://www.w3.org/2000/svg">
</g>
<g xmlns="http://www.w3.org/2000/svg">
</g>
<g xmlns="http://www.w3.org/2000/svg">
</g>
<g xmlns="http://www.w3.org/2000/svg">
</g>
<g xmlns="http://www.w3.org/2000/svg">
</g>
<g xmlns="http://www.w3.org/2000/svg">
</g>
<g xmlns="http://www.w3.org/2000/svg">
</g>
<g xmlns="http://www.w3.org/2000/svg">
</g>
</g></svg>
