<svg viewBox="-26 0 511 511.99971" xmlns="http://www.w3.org/2000/svg"><path d="m251.59375 455.144531c-.042969.007813-.195312.03125-.246094.042969-5.433594.964844-9.039062 6.148438-8.078125 11.585938.859375 4.847656 5.09375 8.253906 9.855469 8.253906.578125 0 1.164062-.050782 1.753906-.15625 5.449219-.90625 9.128906-6.058594 8.222656-11.507813-.910156-5.449219-6.066406-9.128906-11.507812-8.21875zm0 0"/><path d="m333.195312 418.304688c-15.632812 12.894531-34.871093 23.34375-55.636718 30.226562-5.242188 1.734375-8.085938 7.394531-6.347656 12.636719 1.390624 4.199219 5.296874 6.859375 9.488281 6.859375 1.042969 0 2.105469-.164063 3.148437-.511719 23.089844-7.648437 44.554688-19.332031 62.074219-33.78125 4.257813-3.515625 4.863281-9.816406 1.347656-14.078125-3.511719-4.261719-9.8125-4.867188-14.074219-1.351562zm0 0"/><path d="m36.253906 204.542969c1.71875 1.164062 3.671875 1.722656 5.601563 1.722656 3.207031 0 6.355469-1.535156 8.289062-4.390625l.085938-.125c3.125-4.550781 1.964843-10.777344-2.585938-13.902344-4.554687-3.128906-10.777343-1.96875-13.90625 2.582032l-.148437.222656c-3.101563 4.570312-1.90625 10.789062 2.664062 13.890625zm0 0"/><path d="m455.210938 259.085938c-1.070313-5.417969-6.328126-8.945313-11.746094-7.875-5.421875 1.070312-8.945313 6.328124-7.875 11.746093 2.472656 12.542969 3.675781 24.699219 3.683594 37.164063.015624 46.546875-22.605469 94.53125-62.066407 131.648437-41.292969 38.839844-94.300781 60.230469-149.265625 60.230469-54.636718 0-106.917968-21.433594-147.210937-60.351562-38.277344-36.972657-60.230469-84.910157-60.230469-131.53125 0-23.304688 4.246094-45.613282 12.621094-66.3125 2.070312-5.121094-.402344-10.949219-5.519532-13.023438-5.121093-2.070312-10.953124.402344-13.023437 5.519531-9.339844 23.09375-14.078125 47.929688-14.078125 73.816407 0 52.015624 24.179688 105.199218 66.335938 145.917968 44.042968 42.539063 101.257812 65.964844 161.105468 65.964844 30.644532 0 60.773438-6.078125 89.550782-18.066406 27.171874-11.316406 51.875-27.332032 73.417968-47.59375 43.464844-40.886719 68.382813-94.183594 68.363282-146.222656-.003907-13.78125-1.335938-27.199219-4.0625-41.03125zm0 0"/><path d="m428.394531 237.363281.097657.261719c1.503906 4.015625 5.316406 6.496094 9.367187 6.496094 1.164063 0 2.351563-.207032 3.507813-.640625 5.171874-1.9375 7.792968-7.699219 5.851562-12.871094 0-.003906-.015625-.046875-.015625-.050781-1.871094-5.195313-7.585937-7.871094-12.785156-6.003906-5.195313 1.871093-7.886719 7.613281-6.023438 12.808593zm0 0"/><path d="m59.167969 184.753906c2.621093 0 5.238281-1.027344 7.203125-3.0625 1.851562-1.921875 4.300781-4.375 5.957031-5.960937 17.449219-16.730469 33.816406-25.035157 43.964844-27.550781 9.519531 5.667968 21.363281 10.742187 35.964843 13.988281-4.742187 19.332031-4.300781 35.511719 6.140626 58.992187 1.410156 3.167969 4.359374 5.378906 7.792968 5.84375 3.4375.46875 6.867188-.878906 9.070313-3.558594 11.96875-14.566406 37.285156-28.449218 58.464843-36.566406 14.023438 20.753906 32.421876 32.390625 50.277344 43.683594 2.902344 1.835938 5.902344 3.734375 8.796875 5.621094 1.644531 1.070312 3.542969 1.621094 5.460938 1.621094.925781 0 1.855469-.125 2.761719-.386719 2.792968-.800781 5.09375-2.777344 6.3125-5.410157 9.945312-21.476562 10.621093-50.566406 2.984374-70.550781 14.105469-3.574219 25.253907-9.027343 34.015626-15.066406 16.464843 3.453125 47.296874 23.515625 69.597656 60.644531 1.875 3.121094 5.1875 4.851563 8.582031 4.851563 1.753906 0 3.527344-.460938 5.140625-1.429688 4.734375-2.84375 6.265625-8.988281 3.421875-13.722656-15.195313-25.296875-32.644531-41.519531-44.609375-50.671875-8.542969-6.535156-17.046875-11.613281-25.0625-15.050781 9.132812-10.765625 12.332031-20.058594 12.601562-20.890625 1-3.046875.476563-6.390625-1.40625-8.988282-1.882812-2.589843-4.894531-4.125-8.097656-4.125-.054687 0-.097656 0-.144531 0-16.558594 0-28.4375-3.507812-39.929687-6.898437-19.589844-5.78125-38.195313-11.269531-68.070313 6.65625-7.105469-19.121094-9.355469-42.824219-4.699219-56.285156 7.214844-20.847657-1.359375-33.582031-10.894531-38.152344-11.058594-5.300781-27.699219-2-38.105469 14.566406-10.050781 16-12.648437 42.179688-7.773437 77.960938-22.613281-7.734375-40.734375-4.144531-59.691407-.386719-13.167968 2.613281-26.78125 5.308594-43.847656 4.8125-3.457031-.105469-6.730468 1.59375-8.636718 4.484375-1.910157 2.890625-2.1875 6.558594-.734376 9.703125.367188.796875 4.742188 9.941406 15.5 20.375-12.75 5.910156-26.539062 15.511719-38.988281 27.449219-1.824219 1.75-4.507812 4.429687-6.519531 6.523437-3.832031 3.976563-3.714844 10.304688.261719 14.140625 1.9375 1.867188 4.4375 2.796875 6.9375 2.796875zm79.914062-70.664062c21.390625-4.242188 37.148438-7.351563 60.085938 4.28125 2.332031 8.605468 5.683593 17.988281 9.640625 26.90625 1.652344 3.730468 5.3125 5.945312 9.144531 5.945312 1.355469 0 2.734375-.277344 4.050781-.859375 5.046875-2.242187 7.324219-8.148437 5.085938-13.199219-4.074219-9.179687-7.546875-19.25-9.550782-27.664062-7.351562-39.042969-6.625-68.148438 2.054688-81.964844 4.339844-6.90625 10.039062-8.359375 12.523438-7.171875 2.207031 1.058594 3.347656 5.757813.640624 13.578125-8.097656 23.410156-1.222656 59.828125 10.148438 81.828125 1.996094 4.949219 4.558594 10.414063 7.441406 15.847657 1.796875 3.382812 5.261719 5.3125 8.84375 5.3125 1.578125 0 3.183594-.375 4.679688-1.167969 4.878906-2.589844 6.730468-8.644531 4.144531-13.523438-1.253906-2.363281-2.429687-4.71875-3.515625-7.015625 23.503906-14.992187 35.476562-11.476562 54.269531-5.929687 8.105469 2.394531 17.589844 5.191406 29.164063 6.671875-2.800782 3.605468-6.59375 7.628906-11.625 11.527344-.460938.292968-.898438.621093-1.304688.984374-9.332031 6.890626-22.675781 13.234376-41.5 15.921876-3.609375.515624-6.65625 2.957031-7.941406 6.375-1.289062 3.414062-.613281 7.257812 1.761719 10.03125 8.402343 9.8125 10.476562 32.878906 5.695312 51.792968-17.9375-11.355468-34.773437-22.398437-46.371093-42.800781-1.816407-3.199219-5.179688-5.0625-8.695313-5.0625-1.054687 0-2.121094.167969-3.167969.519531-19.242187 6.425782-45.011718 18.503906-63.25 33.824219-3.992187-14.476563-2.167968-25.570313 2.867188-41.820313.867187-2.796874.464844-5.832031-1.101563-8.308593-1.566406-2.472657-4.136719-4.136719-7.035156-4.550781-18.203125-2.601563-31.820313-8.328126-41.820313-14.632813-.488281-.382813-1.011718-.722656-1.5625-1.007813-5.105468-3.378906-9.210937-6.878906-12.445312-10.117187 10.640625-.984375 20.007812-2.839844 28.644531-4.550781zm0 0"/></svg>